<svg xmlns="http://www.w3.org/2000/svg" data-name="Layer 1" viewBox="0 0 700 550" id="snowman"><path fill="#edf2fa" d="M526.3598,184.37247c-16.863,2.124-30.081,69.385-10.48706,125.841,7.524,21.679,24.98,56.447,37.914,54.048,15.853-2.939,22.535-61.281,10.48706-110.515-6.629-27.086-23.75806-71.157-37.914-69.374"></path><path fill="#edf2fa" d="M461.79727,480.79186a50.20307,50.20307,0,0,0,29.806-9.757c14.832-10.938,36.118-29.466,38.48895-47.139,6.946-51.751-76.931-76.234-83.339-141.133-6.667-67.52,78.634-96.6,67.084-143.267-16.78594-67.822-218.749-94.467-245.54595-44.323-15.326,28.68,36.202,64.596,18.615,103.715-18.297,40.701-82.592,20.759-127.248,73.882-32.096,38.181-30.316,85.876-29.98,94.887,1.555,41.676,24.094,75.77,40.54,95.278a50.33,50.33,0,0,0,38.491,17.857Z"></path><rect width="16.178" height="34.616" x="397.179" y="363.177" fill="#eb9a59"></rect><path fill="#d17f42" d="M397.17907,375.70206a6.063,6.063,0,0,1,2.25,4.755,5.651,5.651,0,1,1,11.285,0,6.03234,6.03234,0,0,1,2.643-5.042v-16.701h-16.178Z"></path><path fill="#82c66d" d="M461.49746,366.90126a5.80874,5.80874,0,0,0-5.643,5.96,5.651,5.651,0,1,0-11.285,0,5.651,5.651,0,1,0-11.285,0,5.651,5.651,0,1,0-11.285,0,5.651,5.651,0,1,0-11.285,0,5.651,5.651,0,1,0-11.285,0,5.65142,5.65142,0,1,0-11.286,0,5.651,5.651,0,1,0-11.285,0,5.651,5.651,0,1,0-11.285,0,5.651,5.651,0,1,0-11.285,0,5.80747,5.80747,0,0,0-5.643-5.96c-3.116,0-6.026,5.96-6.026,5.96l61.456-133.04s64.582,134.136,63.834,133.04c0-.009-3.296-5.96-6.412-5.96"></path><path fill="#4ca258" d="M371.02389,337.27336a5.809,5.809,0,0,1,5.643,5.961,5.651,5.651,0,1,1,11.285,0,5.651,5.651,0,1,1,11.285,0,5.651,5.651,0,1,1,11.285,0,5.651,5.651,0,1,1,11.285,0,5.651,5.651,0,1,1,11.285,0,5.65147,5.65147,0,1,1,11.286,0,5.80821,5.80821,0,0,1,5.642-5.961,2.74962,2.74962,0,0,1,1.013.207c-18.914-39.415-46.957-97.659-46.957-97.659l-45.176,97.796c5.582-1.092,6.481,2.56,6.481,5.617a5.809,5.809,0,0,1,5.643-5.961"></path><polygon fill="#0b1436" points="421.992 192.758 421.954 192.758 421.954 192.231 421.992 192.758"></polygon><polygon fill="#0b1436" points="410.707 192.758 410.669 192.758 410.669 192.231 410.707 192.758"></polygon><path fill="#82c66d" d="M357.53067,311.958c6.812-1.995,7.851,1.99,7.851,5.282a5.651,5.651,0,1,1,11.285,0,5.651,5.651,0,1,1,11.285,0,5.651,5.651,0,1,1,11.285,0,5.651,5.651,0,1,1,11.285,0,5.651,5.651,0,1,1,11.285,0,5.65142,5.65142,0,1,1,11.286,0,5.651,5.651,0,1,1,11.285,0,5.80729,5.80729,0,0,1,5.642-5.96c3.116,0,5.676,5.96,5.676,5.96.007,0-51.011-109.513-51.011-109.513l-48.42,104.818-2.169,4.695s2.367-4.969,3.435-5.282"></path><path fill="#4ca258" d="M416.10977,285.997a5.77892,5.77892,0,0,1,5.615,5.932,5.62394,5.62394,0,1,1,11.231,0,5.77973,5.77973,0,0,1,5.616-5.932c1.375,0,2.687,1.166,3.722,2.464-14.246-30.584-35.049-75.24-37.391-80.267l-17.999,38.026-19.47,42.147c.995-1.225,2.311-2.37,3.754-2.37a5.77892,5.77892,0,0,1,5.615,5.932,5.62394,5.62394,0,1,1,11.231,0,5.62347,5.62347,0,1,1,11.23,0,5.62394,5.62394,0,1,1,11.231,0,5.77957,5.77957,0,0,1,5.615-5.932"></path><path fill="#82c66d" d="M444.45446,271.187c.467.684-39.331-84.202-39.331-84.202l-39.551,83.558s2.514-5.288,5.615-5.288a5.78036,5.78036,0,0,1,5.616,5.932,5.62346,5.62346,0,1,1,11.23,0,5.624,5.624,0,1,1,11.231,0,5.62346,5.62346,0,1,1,11.23,0,5.624,5.624,0,1,1,11.231,0,5.62346,5.62346,0,1,1,11.23,0,5.78013,5.78013,0,0,1,5.616-5.931c3.101,0,5.883,5.926,5.883,5.931"></path><path fill="#4ca258" d="M427.61468,236.36856a2.23235,2.23235,0,0,1,.699.135c-10.854-23.207-23.19-49.518-23.19-49.518l-23.433,49.505a2.73417,2.73417,0,0,1,.782-.122,5.7745,5.7745,0,0,1,5.623,5.494c.012.153.02.308.02.466,0-.158.008-.313.019-.466a5.62451,5.62451,0,0,1,11.246,0c.011.153.019.308.019.466,0-.158.008-.313.02-.466a5.626,5.626,0,0,1,11.249,0c.011.154.019.308.019.466,0-.158.008-.312.02-.466a5.62451,5.62451,0,0,1,11.246,0c.011.154.018.308.018.466,0-.158.008-.312.02-.466a5.7752,5.7752,0,0,1,5.623-5.494"></path><path fill="#82c66d" d="M432.99548,227.67816c-.177-.592-3.483-4.163-5.381-4.163a5.77521,5.77521,0,0,0-5.623,5.494c-.012.154-.019.308-.019.466,0-.158-.008-.312-.019-.466a5.62452,5.62452,0,0,0-11.246,0c-.012.154-.02.308-.02.466,0-.158-.007-.312-.019-.466a5.626,5.626,0,0,0-11.249,0c-.012.154-.02.308-.02.466,0-.158-.008-.312-.019-.466a5.62451,5.62451,0,0,0-11.246,0c-.011.154-.019.308-.019.466,0-.158-.008-.312-.019-.466a5.77587,5.77587,0,0,0-5.623-5.494c-2.965,0-6.092,5.494-6.092,5.494l28.622-60.468,27.213,57.486c.004,0,.004.004.004.008Z"></path><path fill="#4ca258" d="M455.85488,372.86127a5.80744,5.80744,0,0,1,5.643-5.96c3.116,0,6.412,5.951,6.412,5.96.397.581-17.612-36.937-34.599-72.272-.09,13.117-.621,26.163-2.319,28.507,0,0-.893,13.733,13.964,41.61a5.65771,5.65771,0,0,1,5.256-3.805,5.80745,5.80745,0,0,1,5.643,5.96"></path><path fill="#4da258" d="M455.474,316.76166c.146.314.223.479.222.479,0,0-.078-.182-.222-.479"></path><path fill="#89bc77" d="M455.474,316.76166c-2.106-4.527-18.81-40.386-32.495-69.765a63.367,63.367,0,0,0,9.976,24.19s.846,27.445-.022,44.668a6.25008,6.25008,0,0,1,.159,1.386,5.651,5.651,0,1,1,11.285,0,5.80811,5.80811,0,0,1,5.643-5.96c2.576,0,4.77,4.069,5.454,5.481"></path><path fill="#4ca258" d="M421.95349,229.00915a67.09929,67.09929,0,0,0,7.671,36.762,5.95128,5.95128,0,0,1,3.331,5.416,5.78078,5.78078,0,0,1,5.616-5.931c3.101,0,5.883,5.925,5.883,5.931.378.554-25.644-54.997-35.56-76.156,3.381,15.246,13.059,33.978,13.059,33.978"></path><path fill="#4ca258" d="M421.99157,229.00915a5.77516,5.77516,0,0,1,5.623-5.494c1.898,0,5.204,3.571,5.381,4.163l-.775-1.643c0-.004,0-.008-.004-.008l-26.712-56.427c.685,1.83,1.873,6.496,2.258,17.385.419,11.847,8.359,29.884,12.174,37.916a6.04293,6.04293,0,0,1,2.017,4.108c.011.154.018.308.018.466,0-.158.008-.312.02-.466"></path><rect width="21.549" height="66.107" x="473.643" y="373.621" fill="#eb9a59"></rect><path fill="#d17f42" d="M473.643,390.30366a8.07494,8.07494,0,0,1,2.997,6.333,7.52727,7.52727,0,1,1,15.032,0,8.03826,8.03826,0,0,1,3.52-6.716v-22.245H473.643Z"></path><path fill="#82c66d" d="M559.31475,378.581a7.73723,7.73723,0,0,0-7.516,7.939,7.52726,7.52726,0,1,0-15.032,0,7.5268,7.5268,0,1,0-15.031,0,7.52726,7.52726,0,1,0-15.032,0,7.52726,7.52726,0,1,0-15.032,0,7.52727,7.52727,0,1,0-15.032,0,7.5268,7.5268,0,1,0-15.031,0,7.52726,7.52726,0,1,0-15.032,0,7.52728,7.52728,0,1,0-15.032,0,7.52726,7.52726,0,1,0-15.032,0,7.7364,7.7364,0,0,0-7.515-7.939c-4.152,0-8.029,7.939-8.029,7.939l81.861-177.21s86.023,178.668,85.027,177.21c0-.011-4.39106-7.939-8.542-7.939"></path><path fill="#4ca258" d="M438.80508,339.11706a7.73721,7.73721,0,0,1,7.516,7.939,7.52726,7.52726,0,1,1,15.032,0,7.5268,7.5268,0,1,1,15.031,0,7.52727,7.52727,0,1,1,15.032,0,7.52726,7.52726,0,1,1,15.032,0,7.52727,7.52727,0,1,1,15.032,0,7.52729,7.52729,0,1,1,15.032,0,7.73587,7.73587,0,0,1,7.516-7.939,3.66019,3.66019,0,0,1,1.348.275c-25.194-52.5-62.547-130.082-62.547-130.082l-60.173,130.264c7.435-1.453,8.632,3.41,8.632,7.482a7.7374,7.7374,0,0,1,7.517-7.939"></path><polygon fill="#0b1436" points="506.694 146.535 506.641 146.535 506.641 146.008 506.694 146.535"></polygon><polygon fill="#0b1436" points="491.662 146.535 491.611 146.535 491.611 146.008 491.662 146.535"></polygon><path fill="#82c66d" d="M420.83148,305.39737c9.073-2.658,10.458,2.65,10.458,7.035a7.5268,7.5268,0,1,1,15.031,0,7.52722,7.52722,0,1,1,15.032,0,7.52721,7.52721,0,1,1,15.032,0,7.52722,7.52722,0,1,1,15.032,0,7.52674,7.52674,0,1,1,15.031,0,7.5272,7.5272,0,1,1,15.032,0,7.52724,7.52724,0,1,1,15.032,0,7.735,7.735,0,0,1,7.516-7.938c4.151,0,7.561,7.938,7.561,7.938.009,0-67.947-145.872-67.947-145.872l-64.496,139.618-2.888,6.254s3.152-6.619,4.574-7.035"></path><path fill="#4ca258" d="M498.85977,270.81638a7.69813,7.69813,0,0,1,7.479,7.901,7.49074,7.49074,0,1,1,14.959,0,7.699,7.699,0,0,1,7.48-7.901c1.832,0,3.57995,1.553,4.95794,3.282-18.976-40.738-46.686-100.219-49.805-106.915l-23.974,50.65-25.934,56.139c1.325-1.631,3.078-3.156,5-3.156a7.699,7.699,0,0,1,7.48,7.901,7.49075,7.49075,0,1,1,14.959,0,7.49073,7.49073,0,1,1,14.959,0,7.49123,7.49123,0,1,1,14.96,0,7.69815,7.69815,0,0,1,7.479-7.901"></path><path fill="#82c66d" d="M536.6137,251.08975c.62195.911-52.388-112.157-52.388-112.157l-52.682,111.299s3.348-7.043,7.479-7.043a7.69894,7.69894,0,0,1,7.48,7.901,7.49075,7.49075,0,1,1,14.959,0,7.49073,7.49073,0,1,1,14.959,0,7.49122,7.49122,0,1,1,14.96,0,7.49074,7.49074,0,1,1,14.959,0,7.49075,7.49075,0,1,1,14.959,0,7.69873,7.69873,0,0,1,7.47894-7.901c4.131,0,7.83606,7.894,7.83606,7.901"></path><path fill="#4ca258" d="M514.183,204.71185a2.97787,2.97787,0,0,1,.933.179c-14.459-30.912-30.89-65.958-30.89-65.958l-31.213,65.941a3.6605,3.6605,0,0,1,1.042-.162,7.69136,7.69136,0,0,1,7.489,7.317c.016.205.027.411.027.621,0-.21.009-.416.025-.621a7.492,7.492,0,0,1,14.98,0c.015.205.025.411.025.621,0-.21.011-.416.026-.621a7.49459,7.49459,0,0,1,14.985,0c.015.205.025.411.025.621,0-.21.011-.416.026-.621a7.49153,7.49153,0,0,1,14.979,0c.016.205.026.411.026.621,0-.21.01-.416.026-.621a7.69133,7.69133,0,0,1,7.489-7.317"></path><path fill="#82c66d" d="M521.351,193.13617c-.23505-.789-4.64105-5.545-7.168-5.545a7.692,7.692,0,0,0-7.489,7.317c-.016.206-.026.411-.026.622,0-.211-.01-.416-.026-.622a7.49153,7.49153,0,0,0-14.979,0c-.015.206-.026.411-.026.622,0-.211-.01-.416-.025-.622a7.49511,7.49511,0,0,0-14.986,0c-.014.206-.025.411-.025.622,0-.211-.01-.416-.025-.622a7.492,7.492,0,0,0-14.98,0c-.015.206-.025.411-.025.622,0-.211-.011-.416-.026-.622a7.693,7.693,0,0,0-7.49-7.317c-3.949,0-8.114,7.317-8.114,7.317l38.125-80.543,36.246,76.571c.006,0,.006.006.006.011Z"></path><path fill="#82c66d" d="M521.351,193.13617c-.23505-.789-4.64105-5.545-7.168-5.545a7.692,7.692,0,0,0-7.489,7.317c-.016.206-.026.411-.026.622,0-.211-.01-.416-.026-.622a7.49153,7.49153,0,0,0-14.979,0c-.015.206-.026.411-.026.622,0-.211-.01-.416-.025-.622a7.49511,7.49511,0,0,0-14.986,0c-.014.206-.025.411-.025.622,0-.211-.01-.416-.025-.622a7.492,7.492,0,0,0-14.98,0c-.015.206-.025.411-.025.622,0-.211-.011-.416-.026-.622a7.693,7.693,0,0,0-7.49-7.317c-3.949,0-8.114,7.317-8.114,7.317l38.125-80.543,36.246,76.571c.006,0,.006.006.006.011Z"></path><path fill="#4ca258" d="M551.79919,386.52046a7.7359,7.7359,0,0,1,7.516-7.939c4.151,0,8.542,7.927,8.542,7.939.528.773-23.459-49.2-46.086-96.268-.119,17.472-.827,34.849-3.089,37.973,0,0-1.191,18.292,18.599,55.424a7.53722,7.53722,0,0,1,7.002-5.068,7.736,7.736,0,0,1,7.516,7.939"></path><path fill="#4da258" d="M551.29235,311.79576c.194.418.296.637.296.637s-.106-.242-.296-.637"></path><path fill="#4ca258" d="M551.29235,311.79576c-2.806-6.031-25.05505-53.795-43.284-92.928a84.41588,84.41588,0,0,0,13.29,32.222s1.126,36.556-.031,59.497a8.36479,8.36479,0,0,1,.213,1.846,7.52731,7.52731,0,1,1,15.032,0,7.73512,7.73512,0,0,1,7.515-7.939c3.431,0,6.354,5.42,7.265,7.302"></path><path fill="#4ca258" d="M506.642,194.90857a89.38925,89.38925,0,0,0,10.218,48.967,7.92682,7.92682,0,0,1,4.438,7.214,7.69961,7.69961,0,0,1,7.48-7.901c4.131,0,7.836,7.894,7.836,7.901.504.738-34.158-73.256-47.365-101.439,4.503,20.306,17.393,45.258,17.393,45.258"></path><path fill="#4ca258" d="M506.69378,194.90857a7.6913,7.6913,0,0,1,7.48895-7.317c2.528,0,6.933,4.755,7.168,5.545l-1.033-2.189c0-.006,0-.011-.006-.011l-35.579-75.161c.912,2.439,2.494,8.654,3.008,23.157.558,15.781,11.134,39.805,16.217,50.503a8.05585,8.05585,0,0,1,2.684,5.473c.016.205.027.411.027.622,0-.211.009-.417.025-.622"></path><rect width="1" height="32.107" x="473.143" y="387.621" fill="#303443"></rect><rect width="20.959" height="44.848" x="332.609" y="339.251" fill="#eb9a59"></rect><path fill="#d17f42" d="M332.60879,355.47746a7.85572,7.85572,0,0,1,2.914,6.16,7.32146,7.32146,0,1,1,14.621,0,7.81491,7.81491,0,0,1,3.424-6.532v-21.637h-20.959Z"></path><path fill="#82c66d" d="M415.93689,344.07606a7.52526,7.52526,0,0,0-7.311,7.722,7.321,7.321,0,1,0-14.62,0,7.32147,7.32147,0,1,0-14.621,0,7.321,7.321,0,1,0-14.62,0,7.32145,7.32145,0,1,0-14.621,0,7.321,7.321,0,1,0-14.62,0,7.32145,7.32145,0,1,0-14.621,0,7.32146,7.32146,0,1,0-14.621,0,7.321,7.321,0,1,0-14.62,0,7.32145,7.32145,0,1,0-14.621,0,7.52446,7.52446,0,0,0-7.31-7.722c-4.038,0-7.809,7.722-7.809,7.722l79.621-172.363s83.67,173.782,82.702,172.363c0-.012-4.271-7.722-8.308-7.722"></path><path fill="#4ca258" d="M298.72308,305.69138a7.52524,7.52524,0,0,1,7.311,7.722,7.321,7.321,0,1,1,14.62,0,7.32145,7.32145,0,1,1,14.621,0,7.321,7.321,0,1,1,14.62,0,7.32146,7.32146,0,1,1,14.621,0,7.321,7.321,0,1,1,14.62,0,7.32147,7.32147,0,1,1,14.621,0,7.5246,7.5246,0,0,1,7.311-7.722,3.57127,3.57127,0,0,1,1.311.268c-24.505-51.064-60.836-126.524-60.836-126.524l-58.527,126.7c7.231-1.413,8.396,3.318,8.396,7.278a7.52526,7.52526,0,0,1,7.311-7.722"></path><polygon fill="#0b1436" points="364.754 118.384 364.704 118.384 364.704 117.857 364.754 118.384"></polygon><polygon fill="#0b1436" points="350.136 118.384 350.085 118.384 350.085 117.857 350.136 118.384"></polygon><path fill="#82c66d" d="M281.24157,272.894c8.824-2.585,10.171,2.578,10.171,6.843a7.32147,7.32147,0,1,1,14.621,0,7.321,7.321,0,1,1,14.62,0,7.32147,7.32147,0,1,1,14.621,0,7.321,7.321,0,1,1,14.62,0,7.32147,7.32147,0,1,1,14.621,0,7.32147,7.32147,0,1,1,14.621,0,7.32147,7.32147,0,1,1,14.621,0,7.52381,7.52381,0,0,1,7.31-7.722c4.037,0,7.354,7.722,7.354,7.722.008,0-66.089-141.883-66.089-141.883l-62.731,135.8-2.809,6.083s3.065-6.438,4.449-6.843"></path><path fill="#4ca258" d="M357.13519,239.25867a7.48775,7.48775,0,0,1,7.274,7.685,7.28641,7.28641,0,1,1,14.551,0,7.48857,7.48857,0,0,1,7.275-7.685c1.782,0,3.481,1.511,4.822,3.192-18.456-39.623-45.408-97.478-48.443-103.991l-23.318,49.265-25.224,54.604c1.289-1.586,2.994-3.07,4.863-3.07a7.48791,7.48791,0,0,1,7.275,7.685,7.28595,7.28595,0,1,1,14.55,0,7.28593,7.28593,0,1,1,14.55,0,7.28593,7.28593,0,1,1,14.55,0,7.48794,7.48794,0,0,1,7.275-7.685"></path><path fill="#82c66d" d="M393.85687,220.07165c.604.886-50.955-109.089-50.955-109.089l-51.241,108.255s3.257-6.851,7.274-6.851a7.48936,7.48936,0,0,1,7.276,7.685,7.28547,7.28547,0,1,1,14.549,0,7.28593,7.28593,0,1,1,14.55,0,7.28595,7.28595,0,1,1,14.55,0,7.28593,7.28593,0,1,1,14.55,0,7.28595,7.28595,0,1,1,14.55,0,7.48854,7.48854,0,0,1,7.275-7.685c4.018,0,7.622,7.678,7.622,7.685"></path><path fill="#4ca258" d="M372.03949,174.96225a2.86669,2.86669,0,0,1,.907.175c-14.063-30.067-30.045-64.154-30.045-64.154l-30.358,64.137a3.56379,3.56379,0,0,1,1.013-.158,7.48255,7.48255,0,0,1,7.285,7.117c.014.2.024.4.024.605,0-.205.011-.405.026-.605a7.28647,7.28647,0,0,1,14.569,0c.016.2.025.4.025.605,0-.205.01-.405.025-.605a7.28955,7.28955,0,0,1,14.575,0c.015.2.024.4.024.605,0-.205.011-.405.026-.605a7.287,7.287,0,0,1,14.57,0c.015.2.024.4.024.605,0-.205.01-.405.025-.605a7.4826,7.4826,0,0,1,7.285-7.117"></path><path fill="#82c66d" d="M379.01117,163.70355c-.229-.768-4.514-5.393-6.972-5.393a7.48256,7.48256,0,0,0-7.285,7.117c-.014.199-.024.4-.024.604,0-.204-.01-.405-.026-.604a7.28647,7.28647,0,0,0-14.569,0c-.015.199-.025.4-.025.604,0-.204-.01-.405-.025-.604a7.28953,7.28953,0,0,0-14.575,0c-.015.199-.024.4-.024.604,0-.204-.01-.405-.026-.604a7.28647,7.28647,0,0,0-14.569,0c-.016.199-.026.4-.026.604,0-.204-.009-.405-.024-.604a7.48185,7.48185,0,0,0-7.285-7.117c-3.842,0-7.892,7.117-7.892,7.117l37.081-78.341,35.256,74.477c.005,0,.005.006.005.011Z"></path><path fill="#4ca258" d="M408.62637,351.79776a7.52459,7.52459,0,0,1,7.311-7.722c4.037,0,8.308,7.71,8.308,7.722.514.753-22.818-47.854-44.826-93.634-.115,16.993-.805,33.896-3.004,36.934,0,0-1.157,17.791,18.091,53.908a7.32955,7.32955,0,0,1,6.81-4.93,7.5238,7.5238,0,0,1,7.31,7.722"></path><path fill="#4da258" d="M408.13317,279.11706c.189.407.288.62.288.62s-.101-.236-.288-.62"></path><path fill="#89bc77" d="M408.13317,279.11706c-2.729-5.866-24.368-52.323-42.1-90.386a82.145,82.145,0,0,0,12.927,31.341s1.095,35.556-.03,57.87a8.14932,8.14932,0,0,1,.206,1.795,7.32146,7.32146,0,1,1,14.621,0,7.524,7.524,0,0,1,7.311-7.722c3.336,0,6.179,5.272,7.065,7.102"></path><path fill="#4ca258" d="M364.70547,165.42715a86.93413,86.93413,0,0,0,9.938,47.628,7.712,7.712,0,0,1,4.317,7.017,7.48776,7.48776,0,0,1,7.274-7.685c4.018,0,7.622,7.677,7.622,7.685.49.717-33.223-71.253-46.069-98.665,4.381,19.751,16.918,44.02,16.918,44.02"></path><path fill="#4ca258" d="M364.75427,165.42715a7.48252,7.48252,0,0,1,7.285-7.117c2.458,0,6.743,4.626,6.972,5.393l-1.005-2.129c0-.005,0-.01-.005-.01l-34.606-73.105c.887,2.371,2.425,8.417,2.924,22.524.544,15.348,10.831,38.716,15.774,49.122a7.83029,7.83029,0,0,1,2.612,5.322c.015.2.025.4.025.604,0-.204.009-.404.024-.604"></path><rect width="21.548" height="56.108" x="209.257" y="386.507" fill="#eb9a59"></rect><path fill="#d17f42" d="M209.25628,403.18936a8.07767,8.07767,0,0,1,2.996,6.334,7.52727,7.52727,0,1,1,15.032,0,8.03809,8.03809,0,0,1,3.52-6.716v-22.245h-21.548Z"></path><path fill="#82c66d" d="M294.92819,391.46767a7.7365,7.7365,0,0,0-7.517,7.938,7.52673,7.52673,0,1,0-15.031,0,7.52722,7.52722,0,1,0-15.032,0,7.52674,7.52674,0,1,0-15.031,0,7.52769,7.52769,0,1,0-15.033,0,7.52722,7.52722,0,1,0-15.032,0,7.52674,7.52674,0,1,0-15.031,0,7.52722,7.52722,0,1,0-15.032,0,7.52722,7.52722,0,1,0-15.032,0,7.52721,7.52721,0,1,0-15.032,0,7.73549,7.73549,0,0,0-7.515-7.938c-4.152,0-8.028,7.938-8.028,7.938l81.86-177.209s86.023,178.668,85.027,177.209c0-.011-4.391-7.938-8.541-7.938"></path><path fill="#4ca258" d="M174.41737,352.00287a7.73655,7.73655,0,0,1,7.516,7.939,7.52727,7.52727,0,1,1,15.032,0,7.5268,7.5268,0,1,1,15.031,0,7.52727,7.52727,0,1,1,15.032,0,7.52775,7.52775,0,1,1,15.033,0,7.5268,7.5268,0,1,1,15.031,0,7.52726,7.52726,0,1,1,15.032,0,7.73656,7.73656,0,0,1,7.516-7.939,3.66185,3.66185,0,0,1,1.348.276c-25.193-52.501-62.547-130.082-62.547-130.082l-60.173,130.264c7.435-1.454,8.633,3.41,8.633,7.481a7.73721,7.73721,0,0,1,7.516-7.939"></path><polygon fill="#0b1436" points="242.307 159.421 242.255 159.421 242.255 158.894 242.307 159.421"></polygon><polygon fill="#0b1436" points="227.276 159.421 227.224 159.421 227.224 158.894 227.276 159.421"></polygon><path fill="#82c66d" d="M156.44378,318.28307c9.073-2.657,10.458,2.651,10.458,7.036a7.5268,7.5268,0,1,1,15.031,0,7.52727,7.52727,0,1,1,15.032,0,7.52774,7.52774,0,1,1,15.033,0,7.52679,7.52679,0,1,1,15.031,0,7.52727,7.52727,0,1,1,15.032,0,7.52679,7.52679,0,1,1,15.031,0,7.52775,7.52775,0,1,1,15.033,0,7.73574,7.73574,0,0,1,7.515-7.939c4.152,0,7.561,7.939,7.561,7.939.009,0-67.947-145.872-67.947-145.872l-64.495,139.617-2.889,6.255s3.152-6.619,4.574-7.036"></path><path fill="#4ca258" d="M234.47207,283.70258a7.69814,7.69814,0,0,1,7.479,7.901,7.49074,7.49074,0,1,1,14.959,0,7.699,7.699,0,0,1,7.48-7.901c1.832,0,3.58,1.553,4.958,3.282-18.976-40.738-46.685-100.219-49.805-106.915l-23.974,50.65-25.933,56.139c1.325-1.631,3.077-3.156,4.999-3.156a7.69831,7.69831,0,0,1,7.48,7.901,7.49122,7.49122,0,1,1,14.96,0,7.49074,7.49074,0,1,1,14.959,0,7.49074,7.49074,0,1,1,14.959,0,7.69814,7.69814,0,0,1,7.479-7.901"></path><path fill="#82c66d" d="M272.226,263.976c.622.911-52.388-112.157-52.388-112.157l-52.682,111.3s3.348-7.044,7.479-7.044a7.70041,7.70041,0,0,1,7.481,7.901,7.49074,7.49074,0,1,1,14.959,0,7.49074,7.49074,0,1,1,14.959,0,7.49074,7.49074,0,1,1,14.959,0,7.49074,7.49074,0,1,1,14.959,0,7.49074,7.49074,0,1,1,14.959,0,7.69875,7.69875,0,0,1,7.479-7.901c4.131,0,7.836,7.894,7.836,7.901"></path><path fill="#4ca258" d="M249.79628,217.59805a2.94623,2.94623,0,0,1,.932.18c-14.459-30.913-30.89-65.959-30.89-65.959l-31.212,65.941a3.65364,3.65364,0,0,1,1.041-.162,7.69224,7.69224,0,0,1,7.49,7.317c.016.205.026.411.026.621,0-.21.01-.416.025-.621a7.492,7.492,0,0,1,14.98,0c.015.205.026.411.026.621,0-.21.01-.416.025-.621a7.4946,7.4946,0,0,1,14.985,0c.015.205.025.411.025.621,0-.21.011-.416.026-.621a7.49205,7.49205,0,0,1,14.98,0c.015.205.025.411.025.621,0-.21.01-.416.026-.621a7.69223,7.69223,0,0,1,7.49-7.317"></path><path fill="#82c66d" d="M256.96328,206.02237c-.235-.789-4.64-5.545-7.167-5.545a7.69224,7.69224,0,0,0-7.49,7.317c-.016.206-.026.411-.026.622,0-.211-.01-.416-.025-.622a7.492,7.492,0,0,0-14.98,0c-.015.206-.026.411-.026.622,0-.211-.01-.416-.025-.622a7.4946,7.4946,0,0,0-14.985,0c-.015.206-.025.411-.025.622,0-.211-.011-.416-.026-.622a7.492,7.492,0,0,0-14.98,0c-.015.206-.025.411-.025.622,0-.211-.01-.416-.026-.622a7.69224,7.69224,0,0,0-7.49-7.317c-3.949,0-8.113,7.317-8.113,7.317l38.124-80.543,36.247,76.571c.005,0,.005.006.005.011Z"></path><path fill="#4ca258" d="M287.41146,399.40616a7.73517,7.73517,0,0,1,7.517-7.938c4.15,0,8.541,7.926,8.541,7.938.529.774-23.459-49.199-46.086-96.267-.119,17.471-.827,34.849-3.089,37.973,0,0-1.19,18.291,18.6,55.423a7.53407,7.53407,0,0,1,7.001-5.067,7.735,7.735,0,0,1,7.516,7.938"></path><path fill="#4da258" d="M286.90469,324.68156c.194.419.296.638.296.638s-.105-.242-.296-.638"></path><path fill="#4ca258" d="M286.90469,324.68156c-2.805-6.031-25.054-53.795-43.284-92.927a84.41229,84.41229,0,0,0,13.29,32.221s1.126,36.557-.03,59.498a8.41594,8.41594,0,0,1,.212,1.846,7.52731,7.52731,0,1,1,15.032,0,7.73664,7.73664,0,0,1,7.515-7.94c3.432,0,6.354,5.421,7.265,7.302"></path><path fill="#4ca258" d="M242.25528,207.79486a89.37862,89.37862,0,0,0,10.218,48.967,7.92773,7.92773,0,0,1,4.437,7.214,7.6996,7.6996,0,0,1,7.48-7.901c4.131,0,7.836,7.894,7.836,7.901.504.738-34.158-73.256-47.365-101.439,4.504,20.307,17.394,45.258,17.394,45.258"></path><path fill="#4ca258" d="M242.30607,207.79486a7.69223,7.69223,0,0,1,7.49-7.317c2.528,0,6.932,4.755,7.167,5.545l-1.033-2.189c0-.006,0-.011-.005-.011l-35.579-75.161c.912,2.439,2.494,8.654,3.007,23.157.558,15.781,11.134,39.805,16.217,50.504a8.05223,8.05223,0,0,1,2.685,5.472c.015.206.026.411.026.622,0-.211.009-.416.025-.622"></path><path fill="#fff" d="M431.23278,393.83487a84.316,84.316,0,1,1-84.316-84.315,84.31657,84.31657,0,0,1,84.316,84.315"></path><path fill="#fff" d="M431.21527,396.23627a84.316,84.316,0,1,1-84.315-84.316,84.31488,84.31488,0,0,1,84.315,84.316"></path><path fill="#fff" d="M431.21527,396.23627a84.316,84.316,0,1,1-84.315-84.316,84.31488,84.31488,0,0,1,84.315,84.316"></path><path fill="#f6978f" d="M368.49746,325.33586v63.038a7.86186,7.86186,0,0,0,7.861,7.862h.004a7.86209,7.86209,0,0,0,7.862-7.862v-63.038Z"></path><path fill="#ef403a" d="M384.224,325.33586l-15.727,28.345v21.403l2.534,13.303a6.637,6.637,0,1,0,13.193-1.245v-61.806Z"></path><path fill="#fff" d="M387.23477,285.19177a40.144,40.144,0,1,1-40.144-40.144,40.14392,40.14392,0,0,1,40.144,40.144"></path><path fill="#bfcbd7" d="M350.74548,309.60927a28.70722,28.70722,0,0,0,.521,6.333c1.977,9.902,6.982,4.686,13.341,10.53,23.332,21.445,28.152,25.563,31.478,30.761,4.843,7.566,7.647,25.213,9.134,32.253,4.239,20.076-8.266,37.883-11.883,43.034-14.129,20.121-35.253,28.224-50.42,34.042a154.91457,154.91457,0,0,1-23.638,6.948,84.32211,84.32211,0,1,0,31.467-163.901"></path><path fill="#c0cedd" d="M350.74548,309.60927a28.70722,28.70722,0,0,0,.521,6.333c1.977,9.902,6.982,4.686,13.341,10.53,23.332,21.445,28.152,25.563,31.478,30.761,4.843,7.566,7.647,25.213,9.134,32.253,4.239,20.076-8.266,37.883-11.883,43.034-14.129,20.121-35.253,28.224-50.42,34.042a154.91457,154.91457,0,0,1-23.638,6.948,84.32211,84.32211,0,1,0,31.467-163.901"></path><path fill="#303443" d="M393.746,432.80655l-.81836-.57422c10.61426-15.11621,14.585-29.46387,11.80273-42.64258l.97852-.207C408.55065,402.84463,404.52624,417.454,393.746,432.80655Z"></path><path fill="#4c4c4b" d="M338.811 273.61026a3.55251 3.55251 0 11-3.553-3.553 3.55335 3.55335 0 013.553 3.553M362.476 273.61026a3.55251 3.55251 0 11-3.553-3.553 3.55335 3.55335 0 013.553 3.553"></path><path fill="#f9a659" d="M346.602,282.93057c-1.197,0-18.064,7.467-18.064,7.467s16.866,7.467,18.064,7.467c3.127,0,5.661-3.343,5.661-7.467s-2.534-7.467-5.661-7.467"></path><path fill="#4c4c4b" d="M339.39929 306.05069a1.66774 1.66774 0 01-.626-.12207 23.54939 23.54939 0 01-4.48828-2.35449 1.673 1.673 0 011.94238-2.72461h0a20.59365 20.59365 0 003.79981 1.97754 1.6728 1.6728 0 01-.62793 3.22363zM347.66394 307.74014a21.9635 21.9635 0 01-3.43555-.27734 1.67213 1.67213 0 01.52539-3.30274 17.93994 17.93994 0 004.83008.126 1.6725 1.6725 0 11.38086 3.32324A20.14516 20.14516 0 01347.66394 307.74014zM354.89148 306.25088a1.6726 1.6726 0 01-.666-3.207 18.22573 18.22573 0 003.69141-2.167 1.67227 1.67227 0 012.01171 2.67188 21.52537 21.52537 0 01-4.373 2.56347A1.65387 1.65387 0 01354.89148 306.25088z"></path><path fill="#c72932" d="M368.49746,325.33586v4.709c6.896,6.33,11.944,10.944,15.727,14.476v-19.185Z"></path><path fill="#c72932" d="M371.15368,366.65906h.003a7.86188,7.86188,0,0,0,7.861-7.862v-33.461h-10.52v40.852a7.821,7.821,0,0,0,2.656.471"></path><path fill="#4c4c4b" d="M350.46917,357.23326a3.55251,3.55251,0,1,1-3.553-3.553,3.55272,3.55272,0,0,1,3.553,3.553"></path><path fill="#fff" d="M346.91589,361.121a3.8877,3.8877,0,1,1,3.88867-3.88769A3.89205,3.89205,0,0,1,346.91589,361.121Zm0-7.10547a3.21778,3.21778,0,1,0,3.21875,3.21778A3.22043,3.22043,0,0,0,346.91589,354.01553Z"></path><path fill="#4c4c4b" d="M350.46917 379.85146a3.55251 3.55251 0 11-3.553-3.553 3.55272 3.55272 0 013.553 3.553M350.46917 402.46967a3.55251 3.55251 0 11-3.553-3.553 3.55272 3.55272 0 013.553 3.553M350.46917 425.08777a3.55251 3.55251 0 11-3.553-3.553 3.55208 3.55208 0 013.553 3.553"></path><path fill="#ef403a" d="M311.45938,266.68738s50.529-7.104,71.262,0c0,0-3.114-23.165,11.338-21.639,14.452,1.525,28.181,22.721,33.721,26.575,0,0-4.365-15.275-18.305-39.743-13.915-24.421-48.414-38.779-82.376-18.546-26.571,15.829-25.74,39.987-15.64,53.353"></path><path fill="#f6978f" d="M359.27777,325.33586v33.461a7.86186,7.86186,0,0,0,7.861,7.862h.003a7.86208,7.86208,0,0,0,7.862-7.862v-33.461Z"></path><path fill="#ef403a" d="M375.00329,325.33586h-15.726v21.403l2.534,13.303a6.63655,6.63655,0,1,0,13.192-1.245v-33.461Z"></path><path fill="#c72932" d="M359.27777,325.33586c.462.326,12.739,7.937,15.726,10.678v-10.678Z"></path><path fill="#b22532" d="M375.00329,325.33586v10.678q2.157,1.98,4.015,3.688v-14.366Z"></path><path fill="#c0cedd" d="M378.016,259.83337c-6.398,0-48.742-4.101-63.334,1.678a40.07414,40.07414,0,0,0-4.323,7.486c.392-.056,57.389-3.54,64.064,6.231,8.906,13.039,6.224,21.698,1.938,35.989l1.414-.151a40.1195,40.1195,0,0,0,.447-51.213c-.068-.004-.138-.02-.206-.02"></path><path fill="#ef403a" d="M388.224,325.33586H305.576a7.86271,7.86271,0,0,1-7.863-7.861v-.003a7.86378,7.86378,0,0,1,7.863-7.863h82.648a7.86209,7.86209,0,0,1,7.861,7.863v.003a7.861,7.861,0,0,1-7.861,7.861"></path><path fill="#f7964c" d="M352.26309,290.39737h-23.726s16.867,7.467,18.065,7.467c3.127,0,5.661-3.343,5.661-7.467"></path><path fill="#c72932" d="M380.02288,226.03217c-26.013-10.839-37.093,26.495-37.093,26.495l39.51,8.892c.042-6.738,1.654-17.423,11.619-16.371,14.452,1.526,28.182,22.721,33.722,26.575-9.087-17.515-21.744-34.752-47.758-45.591"></path><path fill="#fff" d="M388.224 267.04675H305.576a7.86271 7.86271 0 01-7.863-7.861v-.004a7.86208 7.86208 0 017.863-7.861h82.648a7.86039 7.86039 0 017.861 7.861v.004a7.861 7.861 0 01-7.861 7.861M436.09027 271.62347a8.31 8.31 0 11-8.31-8.31 8.31065 8.31065 0 018.31 8.31"></path><path fill="#f6978f" d="M313.97207,244.811a4.76517,4.76517,0,0,1-3.911-4.825,18.7996,18.7996,0,0,1,3.002-10.1c4.582-6.895,13.784-9.82,15.415-7.949.708.812-.452,2.02-2.65,8.913-1.729,5.425-1.426,5.982-2.649,7.948-.411.661-4.303,6.746-9.152,6.021-.019-.002-.037-.005-.055-.008"></path><path fill="#c0cedd" d="M427.78067,279.93307a8.27143,8.27143,0,0,0,5.408-2.009c-9.838-2.939-9.434-13.523-9.433-13.569a8.30827,8.30827,0,0,0,4.025,15.578"></path><rect width="37.381" height="1" x="352.263" y="324.768" fill="#303443" transform="rotate(-.224 370.955 325.27)"></rect><path fill="#303443" d="M354.72058,232.4086l-.78711-.61621c.11133-.14307,11.4248-14.23047,29.11523-4.99121l-.46289.88672C365.6444,218.83975,355.15808,231.85049,354.72058,232.4086Z"></path><rect width="11.862" height="1" x="340.4" y="289.897" fill="#303443"></rect><path fill="#f6978f" d="M300.71328,319.68346c-.822-2.555.728-5.704,2.942-6.995,2.402-1.401,4.149-.781,9.359-.476,5.825.343,7.904-1.094,6.769,1.891-1.17,3.077-3.525,2.222-6.753,3.434-2.564.963-3.394.87-4.969,2.027-2.181,1.603-2.484,3.176-3.893,3.24-1.476.069-2.957-1.575-3.455-3.121"></path><path fill="#303443" d="M290.90417,359.23331a1.98644,1.98644,0,0,1-1.043-.29493l-40.32031-24.71484a2.0084,2.0084,0,0,1-.53223-.47461L228.368,307.29776a2.00036,2.00036,0,1,1,3.15429-2.46094l20.417,26.166,40.01172,24.52539a2,2,0,0,1-1.04688,3.70508Z"></path><path fill="#303443" d="M250.58679 334.51944a2.00344 2.00344 0 01-1.9336-2.51563l7.03907-26.45117a2 2 0 113.86523 1.0293l-7.03906 26.45117A2.00162 2.00162 0 01250.58679 334.51944zM244.87585 327.20108h-24.5293a2 2 0 010-4h24.5293a2 2 0 010 4zM402.63855 359.23331a1.99995 1.99995 0 01-1.04688-3.70508l40.01074-24.52539 20.418-26.166a2.00036 2.00036 0 013.1543 2.46094l-20.6416 26.45117a2.0084 2.0084 0 01-.53223.47461l-40.31934 24.71484A1.9864 1.9864 0 01402.63855 359.23331z"></path><path fill="#303443" d="M442.955 334.51944a2.00162 2.00162 0 01-1.93164-1.48633l-7.03808-26.45117a2 2 0 113.86523-1.0293l7.03809 26.45117a2.00344 2.00344 0 01-1.9336 2.51563zM473.19714 327.20108H448.66687a2 2 0 010-4h24.53027a2 2 0 010 4z"></path><path fill="#bfcbd7" d="M292.58538,348.82506a8.57888,8.57888,0,0,1,2.122,4.119,9.18692,9.18692,0,0,1-.21,4.839,9.52263,9.52263,0,0,1-.485,1.173c-.221.366-.437.733-.669,1.087a7.84789,7.84789,0,0,1-1.83,1.712,7.30577,7.30577,0,0,1-2.181,1.026,8.57663,8.57663,0,0,1-2.327.265c.537-.619,1.123-1.025,1.603-1.547a14.49139,14.49139,0,0,0,1.325-1.495,12.10239,12.10239,0,0,0,1.029-1.52,12.4016,12.4016,0,0,0,.689-1.647,16.52772,16.52772,0,0,0,.713-3.71c.118-1.337.162-2.742.221-4.302"></path><path fill="#e4ebf1" d="M270.58538 169.74557c3.861 0 3.867-6 0-6-3.86 0-3.867 6 0 6M199.30607 331.63466c3.86 0 3.866-6 0-6-3.861 0-3.867 6 0 6M460.66546 405.20886c3.861 0 3.867-6 0-6-3.86 0-3.867 6 0 6"></path><path fill="#fff" d="M383.04871 175.35876c5.791 0 5.801-9 0-9-5.791 0-5.801 9 0 9M257.62536 310.56726c5.791 0 5.801-9 0-9-5.791 0-5.801 9 0 9M178.78558 411.35637c5.791 0 5.801-9 0-9-5.791 0-5.801 9 0 9M226.30607 204.05756c5.791 0 5.8-9 0-9-5.792 0-5.801 9 0 9M294.41247 140.88367c5.791 0 5.8-9 0-9-5.792 0-5.801 9 0 9M167.82847 298.63077c5.791 0 5.801-9 0-9-5.791 0-5.801 9 0 9M507.10589 228.64008c5.791 0 5.801-9 0-9-5.791 0-5.801 9 0 9M435.099 298.63077c5.791 0 5.801-9 0-9-5.791 0-5.801 9 0 9M494.186 367.54576c5.791 0 5.801-9 0-9-5.791 0-5.801 9 0 9M250.58538 372.17566c5.791 0 5.801-9 0-9-5.791 0-5.8 9 0 9M340.39978 111.30557c5.791 0 5.801-9 0-9-5.791 0-5.801 9 0 9M471.46527 179.85876c5.791 0 5.801-9 0-9-5.791 0-5.801 9 0 9M527.62536 326.30946c5.791 0 5.801-9 0-9-5.791 0-5.801 9 0 9M514.6654 427.26556c5.791 0 5.801-9 0-9-5.791 0-5.801 9 0 9"></path><path fill="#e4ebf1" d="M481.186,274.50577c3.86,0,3.867-6,0-6-3.861,0-3.867,6,0,6"></path><path fill="#fff" d="M319.42907,448.96276a31.19194,31.19194,0,0,0-11.358,2.196,43.79754,43.79754,0,0,0-69.614,5.266,24.85314,24.85314,0,0,0-32.375,24.023h144.831a31.48438,31.48438,0,0,0-31.484-31.485"></path><path d="M308.07019,451.15713l-.23047-.25585a43.29314,43.29314,0,0,0-25.17578-13.88086l.168-.98633a44.27413,44.27413,0,0,1,25.52149,13.94531,32.0544,32.0544,0,0,1,11.07129-2.0166,32.478,32.478,0,0,1,8.77051,1.20117l-.26954.96289a31.46243,31.46243,0,0,0-8.49707-1.16406,31.05678,31.05678,0,0,0-11.0371,2.07129Z"></path><path fill="#c0cedd" d="M293.07067,454.15906a31.15857,31.15857,0,0,1,11.358-2.196,31.48525,31.48525,0,0,1,31.339,28.485h15.146a31.48461,31.48461,0,0,0-31.485-31.485,31.15857,31.15857,0,0,0-11.358,2.196,43.81261,43.81261,0,0,0-48.822-11.768,43.69215,43.69215,0,0,1,33.822,14.768"></path><path fill="#fff" d="M350.37927 448.96276a31.196 31.196 0 0111.358 2.196 43.79757 43.79757 0 0169.614 5.266 24.85314 24.85314 0 0132.375 24.023h-144.831a31.48439 31.48439 0 0131.484-31.485M458.65667 435.61417a13.04811 13.04811 0 014.761.921 18.35429 18.35429 0 0129.179 2.207 10.42357 10.42357 0 013.013-.488 10.55717 10.55717 0 0110.558 10.557h-60.708a13.197 13.197 0 0113.197-13.197M212.88807 435.61417a13.048 13.048 0 014.761.921 18.3543 18.3543 0 0129.179 2.207 10.41789 10.41789 0 013.013-.488 10.55719 10.55719 0 0110.558 10.557h-60.708a13.197 13.197 0 0113.197-13.197"></path><path fill="#c0cedd" d="M438.53747,455.26067a24.9546,24.9546,0,0,0-7.187,1.164,43.77451,43.77451,0,0,0-46.771-18.893,43.81179,43.81179,0,0,1,26.771,18.893,24.8532,24.8532,0,0,1,32.375,24.023h20a25.18708,25.18708,0,0,0-25.188-25.187"></path><rect width="1.001" height="32.107" x="255.742" y="213.307" fill="#303443" transform="rotate(-25.382 256.243 229.36)"></rect></svg>